<svg xmlns="http://www.w3.org/2000/svg" width="18" height="30" viewBox="0 0 18 30">
  <path fill="rgb(134 133 133)"
    d="M8.14 0c4.71-.059 7.27 2 8.51 5.322a7.6 7.6 0 0 1 .38 4.287l-.6 1.774c-1.09 2.411-3.34 3.864-6.26 4.509a7.555 7.555 0 0 1-4.21-.591c-3.09-1.278-6.42-5.246-4.67-9.905A8.381 8.381 0 0 1 5.81.591C6.36.361 7.71.266 8.14 0zm.23 4.805c-.28.189-.69.191-.98.37a3.6 3.6 0 0 0-1.51 1.921c-.66 2.062 1.46 4.553 3.54 4.065a3.549 3.549 0 0 0 2.71-2.143 3.29 3.29 0 0 0-1.73-3.991A5.084 5.084 0 0 0 8.37 4.8zM1.89 15.67c1.29 0 1.88.6 2.79.961a17.563 17.563 0 0 0 2.86.592 5.182 5.182 0 0 0 1.81.147 24.653 24.653 0 0 0 4.29-.886c.59-.246 1.37-1.043 2.34-.814a2.379 2.379 0 0 1 1.95 2.735c-.4 1.608-2.14 2.27-3.61 2.809a7.976 7.976 0 0 0-2.11.665 8.329 8.329 0 0 1 1.43 1.331c.72.7 1.47 1.367 2.18 2.069a4.858 4.858 0 0 1 1.36 1.478 2.517 2.517 0 0 1-1.05 2.957 2.886 2.886 0 0 1-2.34.074 9.22 9.22 0 0 1-1.2-1.109 29.59 29.59 0 0 1-2.42-2c-.29-.278-.87-1.16-1.28-1.035a5.571 5.571 0 0 0-1.5 1.33 20.741 20.741 0 0 1-1.89 1.552c-.4.3-.7.829-1.13 1.109a2.847 2.847 0 0 1-2.71 0 2.509 2.509 0 0 1-.9-2.883 9.943 9.943 0 0 1 2.63-2.661c.86-.65 1.43-1.7 2.34-2.291v-.07C4.22 21.698.99 20.277.38 19.365a2.733 2.733 0 0 1-.22-2.292c.35-.83 1.04-.901 1.73-1.404z"
    fill-rule="evenodd"></path>
</svg>