<svg xmlns="http://www.w3.org/2000/svg" width="53" height="38" viewBox="0 0 53 38">
  <path
    d="M52.969 23.346c0 2.32.007 4.641 0 6.961a7.5 7.5 0 0 1-7.347 7.667H10.331a25.805 25.805 0 0 1-4.217-.118 7.362 7.362 0 0 1-5.391-4.209 8.618 8.618 0 0 1-.67-3.6v-17.74c0-1.824-.143-3.714.03-5.534A7.483 7.483 0 0 1 7.626 0c4.689-.013 9.377 0 14.065 0h19.4c1.479 0 2.959-.009 4.439 0a7.478 7.478 0 0 1 7.443 7.42c.065 5.309-.004 10.62-.004 15.926zM51.142 27V8.908c0-.5.006-.995 0-1.492a5.645 5.645 0 0 0-3.385-5.145 11.346 11.346 0 0 0-4.415-.425H9.309c-1.761 0-3.446-.1-5 .956a5.651 5.651 0 0 0-2.426 4.661c-.006.623 0 1.247 0 1.87v18.225c0 2.044-.256 4.239.892 6.042a5.565 5.565 0 0 0 4.657 2.53H45.625a5.6 5.6 0 0 0 5.1-3.414c.699-1.696.417-3.916.417-5.716zm-6.647 2.683l-8.543-6.913c-.918-.742.384-2.039 1.293-1.3l8.543 6.913c.918.742-.388 2.039-1.288 1.303zm-6.3-15.049l-8.962 7.252c-1.114.9-2.24 1.822-3.787 1.182a10.893 10.893 0 0 1-2.352-1.749L7.237 8.488c-.918-.743.384-2.04 1.293-1.3l7.244 5.862 9.016 7.3c.642.519 1.427 1.461 2.279.946a18.986 18.986 0 0 0 1.947-1.575L44.5 7.187c.91-.736 2.21.561 1.293 1.3zM15.78 21.467c.91-.736 2.21.561 1.293 1.3L8.53 29.68c-.91.736-2.21-.561-1.293-1.3z"
    fill-rule="evenodd"></path>
</svg>