<svg xmlns="http://www.w3.org/2000/svg" width="33.44" height="28.063" viewBox="0 0 33.44 28.063">
  <path fill="rgb(134 133 133)"
    d="M12.52 26.289l.6-7.86c.34-.222.58-.587.9-.829.57-.429 1.02-.964 1.59-1.392.12-.122.23-.244.34-.365 1.4-1.059 2.52-2.458 3.92-3.516.42-.311.75-.744 1.17-1.061.54-.411.98-.977 1.53-1.393l.33-.365c.41-.309.73-.726 1.13-1.028.72-.536 1.29-1.221 2-1.758.27-.2.47-.528.73-.73a1.661 1.661 0 0 0 .87-.994 1.277 1.277 0 0 0-1.37.265c-1.1.723-2.24 1.451-3.36 2.156-3.39 2.141-6.79 4.2-10.18 6.334q-1.335.84-2.7 1.692a3.671 3.671 0 0 1-1.33.763 8.263 8.263 0 0 0-1.63-.5c-1.44-.484-2.98-.911-4.43-1.393a8.513 8.513 0 0 1-2.42-.829c-.07-.1-.14-.2-.2-.3-.03-1.087.84-1.315 1.66-1.659 1.47-.617 3-1.106 4.49-1.725 4.79-1.977 9.76-3.661 14.55-5.637 1.64-.677 3.31-1.214 4.92-1.89 1.8-.756 3.65-1.364 5.43-2.09a1.685 1.685 0 0 1 2.06.331 3.457 3.457 0 0 1 .07 2.72c-.11.38-.09.722-.2 1.094-.24.811-.3 1.678-.54 2.52-.7 2.476-.96 5.152-1.66 7.629-.19.694-.2 1.361-.4 2.056-.7 2.475-.97 5.15-1.66 7.628-.33 1.172-.35 3.072-1.2 3.681-.92.656-2.14-.245-2.73-.664-1.42-1.012-2.77-2.15-4.19-3.15-.66-.464-1.28-.97-1.93-1.426a5.694 5.694 0 0 1-.84-.6 3.742 3.742 0 0 0-.76.729c-.38.283-.63.687-1 .963a15.267 15.267 0 0 0-1.56 1.458 2.881 2.881 0 0 1-2 1.135z"
    fill-rule="evenodd"></path>
</svg>