<svg xmlns="http://www.w3.org/2000/svg" width="38.97" height="22" viewBox="0 0 38.97 22">
  <path fill="rgb(134 133 133)"
    d="M17.11 0a15.6 15.6 0 0 1 4 .243c.12.038.23-.006.35.031a2.7 2.7 0 0 1 .72.319 1.948 1.948 0 0 1 .55 1.035c.05.164-.01.34.04.5a5.584 5.584 0 0 1 0 1.355 3.579 3.579 0 0 0-.02.457c-.03 1.363-.05 2.728-.08 4.093 0 1.177.1 2.547 1.02 2.769a.711.711 0 0 0 .4-.076 2.539 2.539 0 0 0 .84-.639 10.585 10.585 0 0 0 1.59-2.024 1.6 1.6 0 0 1 .12-.136c.1-.153.18-.3.27-.457.09-.137.22-.274.3-.411a1.784 1.784 0 0 1 .14-.289c.31-.5.64-1.036.92-1.567.13-.251.2-.5.32-.762a2.027 2.027 0 0 0 .12-.167c.1-.22.19-.427.28-.654a1.012 1.012 0 0 1 .11-.152 1.651 1.651 0 0 1 .06-.213 8.555 8.555 0 0 1 1.06-2.131.6.6 0 0 1 .21-.061c.06-.023.14-.087.2-.106a2.833 2.833 0 0 1 .67 0l.21-.016h4.52a8.381 8.381 0 0 1 1.98.107c.08 0 .16.01.23.015a1.654 1.654 0 0 1 .57.335c.02.056.03.112.05.167a1.033 1.033 0 0 1 .09.138 1.169 1.169 0 0 1-.11.7c-.05.129-.02.266-.07.381-.16.315-.3.645-.47.943-.08.16-.12.331-.21.487-.04.073-.14.154-.19.228s-.05.143-.09.214c-.06.1-.16.194-.21.289-.02.045-.03.091-.05.136l-.09.077c-.03.039-.02.077-.05.121-.05.082-.14.163-.2.244-.2.311-.39.606-.6.913-.03.044-.09.079-.12.122-.07.1-.11.206-.18.3-.49.662-1.03 1.283-1.49 1.963-.06.08-.16.148-.22.228-.29.4-.58.763-.86 1.172-.04.064-.13.118-.17.183-.2.295-.42.571-.61.867a4.142 4.142 0 0 0-.24.5 1.505 1.505 0 0 0-.16.883 2.5 2.5 0 0 0 .38.837c.11.15.29.264.4.411a3.03 3.03 0 0 0 .61.608c.06.061.12.122.17.183.25.184.45.407.7.594.12.091.18.259.3.35a6.493 6.493 0 0 1 1.05 1.019c.06.081.22.165.29.259a2.563 2.563 0 0 0 .38.457 1.553 1.553 0 0 1 .31.289c.24.334.51.616.74.958.11.156.26.3.37.457.04.064.05.135.09.2.09.141.21.292.29.441.03.056.03.114.06.167a.69.69 0 0 1 .1.123c0 .04.01.08.01.121.02.06.07.132.09.183a1.157 1.157 0 0 1-.12.959 2.5 2.5 0 0 1-1.32.669l-.91.015h-4.38a4.494 4.494 0 0 1-1.12-.015c-.05-.014-.13-.062-.17-.076a2.416 2.416 0 0 1-.26-.046c-.05-.023-.1-.086-.15-.106h-.1a2.647 2.647 0 0 1-.32-.152l-.09-.016c-.05-.025-.09-.1-.14-.122a5.035 5.035 0 0 1-1.55-1.263.806.806 0 0 0-.08-.045 5.291 5.291 0 0 1-.43-.5c-.1-.092-.19-.183-.29-.275-.19-.254-.41-.473-.6-.73-.08-.071-.15-.142-.23-.213a.9.9 0 0 0-.06-.091.239.239 0 0 1-.06-.03 5.177 5.177 0 0 0-1.19-1.1 2.421 2.421 0 0 0-.44-.274c-.11-.043-.18-.026-.3-.061a.482.482 0 0 0-.26-.03c-.9.268-1.17 1.065-1.44 1.962l-.03.351c-.03.135-.06.316-.09.441v.213c-.07.269-.01.687-.07.958v.168a1.333 1.333 0 0 1-.49.776c-.12.073-.27.07-.4.137a1.09 1.09 0 0 1-.46.152c-.09.012-.28-.015-.4-.015h-2.07a2.658 2.658 0 0 1-.48-.015h-.23c-.4-.094-.84-.122-1.2-.228l-.4-.031a14.221 14.221 0 0 1-2.3-.791c-.08-.036-.15-.025-.22-.061-.3-.154-.63-.32-.92-.472-.05-.015-.09-.03-.14-.045-.29-.179-.6-.354-.89-.533-.03-.03-.05-.061-.08-.092-.12-.074-.25-.115-.37-.2-.14-.1-.28-.244-.43-.349-.08-.064-.17-.1-.26-.168s-.15-.153-.23-.212c-.05-.04-.12-.062-.17-.107a8.251 8.251 0 0 0-.78-.716 3.672 3.672 0 0 1-.43-.471 6.382 6.382 0 0 1-.6-.609c-.13-.17-.26-.332-.39-.5-.11-.156-.31-.309-.43-.472-.15-.216-.3-.421-.46-.639-.05-.074-.15-.138-.2-.213-.11-.169-.2-.337-.32-.5-.05-.074-.15-.138-.2-.213-.04-.051-.04-.1-.08-.152l-.09-.076c-.2-.322-.4-.624-.6-.944-.06-.095-.17-.182-.23-.274-.44-.738-.88-1.476-1.35-2.176-.1-.148-.14-.32-.23-.472-.11-.168-.24-.349-.34-.517l-.06-.183c-.13-.2-.23-.419-.36-.639-.02-.042-.08-.083-.1-.122a1.347 1.347 0 0 1-.06-.183c-.07-.111-.17-.25-.24-.365a.544.544 0 0 0-.03-.122c-.07-.128-.19-.272-.26-.41a6.742 6.742 0 0 0-.3-.655c-.07-.108-.18-.246-.24-.365l-.03-.137a.934.934 0 0 1-.12-.152c0-.04-.01-.081-.01-.122-.02-.041-.08-.08-.1-.121a.772.772 0 0 0-.03-.152.647.647 0 0 0-.09-.092c-.03-.047-.02-.1-.05-.152a.511.511 0 0 0-.09-.107 1.06 1.06 0 0 1-.06-.2c-.02-.04-.07-.085-.09-.122-.04-.08-.04-.156-.08-.229l-.06-.045a.782.782 0 0 1-.03-.153c-.03-.069-.11-.138-.14-.213l-.03-.136-.06-.046c-.03-.058-.02-.122-.05-.183s-.09-.12-.12-.183V4.04C.89 3.964.85 3.887.8 3.811l-.03-.137C.75 3.636.7 3.596.68 3.553L.65 3.4c-.02-.046-.09-.092-.11-.136a1.7 1.7 0 0 1-.06-.213c-.11-.212-.23-.459-.34-.67a1.918 1.918 0 0 0-.05-.229.981.981 0 0 1-.1-.562A1.028 1.028 0 0 1 .91.966c.11 0 .22-.011.34-.015.11-.024.23.028.37 0a5.066 5.066 0 0 1 .95-.016h2.7l1.6.016a2.027 2.027 0 0 1 .97.487 1.45 1.45 0 0 1 .15.2c.03.047.02.106.05.153a.56.56 0 0 1 .11.122c.06.165.08.281.15.441.02.034.06.063.08.091.04.07.02.15.06.228.02.052.09.112.11.167a4.127 4.127 0 0 0 .17.5c.02.035.07.073.09.106a2.064 2.064 0 0 0 .08.228 3.255 3.255 0 0 1 .24.517c.02.056.09.1.11.153l.03.137c.02.035.07.072.09.106s.02.092.03.138a2.366 2.366 0 0 1 .14.228c.03.056 0 .09.03.137.03.02.05.041.08.061a1.4 1.4 0 0 0 .06.2c.12.189.26.4.37.594.07.119.09.232.15.35a1.32 1.32 0 0 1 .11.137c.02.04.01.067.03.106a1.021 1.021 0 0 0 .11.107c.04.057.04.126.08.182.05.079.13.163.18.244.08.13.11.27.2.4.33.491.67 1 1.01 1.476a5.846 5.846 0 0 0 1.54 1.658 1.018 1.018 0 0 0 .8.244 1.723 1.723 0 0 0 .92-1.461c.04-.13 0-.251.03-.4a12.9 12.9 0 0 0 .14-2.754 10.568 10.568 0 0 0-.11-2.146c-.03-.159.01-.288-.03-.457a3.7 3.7 0 0 0-.41-1.171 2.607 2.607 0 0 0-1.31-.867c-.2-.086-.52.045-.52-.259a.634.634 0 0 0 .06-.152c.11-.122.23-.244.34-.365a3.833 3.833 0 0 1 .63-.38l.32-.077c.05-.021.11-.074.16-.091.1-.036.2 0 .32-.031s.3-.088.44-.122c.14 0 .27-.009.4-.015.25-.053.56-.029.8-.091a4 4 0 0 0 .65-.01z"
    fill-rule="evenodd"></path>
</svg>